<svg xmlns="http://www.w3.org/2000/svg" viewBox="0 0 800 800"><style>path {--sli-color-favicon: #000;} @media (prefers-color-scheme: dark) {path {--sli-color-favicon: #fff;}}</style><path fill="var(--sli-color-favicon)" d="M764.002 466.121c-20.527-24.174-43.811-35.617-68.106-38.885l.023-.075.106.033c-.146-.046-14.538-4.891-16.98-14.934-2.335-9.604 6.103-24.889 23.149-41.936 22.058-22.057 22.743-42.117 19.435-55.061-11.04-43.19-81.765-67.3-97.408-72.141-3.349-13.845-12.87-26.016-24.953-21.751-32.747 11.557-72.664 11.61-72.664 11.61s40.756 49.566 58.713 53.419c13.396 2.874 26.634-2.762 34.096-13.264 7.143 2.433 19.868 7.139 32.907 13.773 23.061 11.732 37.354 24.444 40.247 35.796.745 2.921 3.011 11.811-11.585 26.406-25.847 25.846-36.278 49.586-31.007 70.56a43.756 43.756 0 0 0 3.424 9.159c-21.854 4.059-43.714 12.412-64.399 21.98-39.16-.574-91.459 2.14-130.075-1.042-2.116-2.486 4.432-4.904 8.853-7.508 38.385-18.474-6.404-21.746-36.213-82.705-10.198-16.986 18.941-1.385 22.753-9.759-.637-8.376-8.212-16.02-12.039-24.842-6.13-11.633-12.019-24.125-16.574-36.393-3.268-7.023.121-7.378 5.724-7.875 4.496-1.217 31.408.965 28.974-4.538-17.158-21.084-48.082-57.124-67.67-77.428-6.708-5.503-21.558-10.944-26.086-16.271-4.136-6.091 45.263-8.824 34.613-18.559-77.511-42.167-217.176-109.978-271.09 14.183-10.784 10.105-26.634 17.478-36.42 28.222-6.784 7.994-3.362 19.418-8.75 28.352-3.862 7.229-11.019 12.12-17.319 17.165-9.355 7.564-15.212 13.493-24.439 18.004-38.235 14.688-4.844 51.458 4.888 76.556 3.841 9.011 9.819 10.444 18.797 10.114 10.288.046 27.056-.005 37.306.029 9.517-.164 13.009.655 5.839 5.605-11.188 8.452-28.241 19.098-39.353 28.309-7.937 7.396-2.278 19.631-.916 28.977 4.177 20.618 13.216-4.467 25.106-7.822 37.303-15.605 74.985-10.381 32.194 29.69-29.518 20.385-61.967 75.306-47.088 128.189 1.775 7.986 4.098 12.803 11.953 13.126 20.748.522 59.269.081 80.969.287 19.36-2.704 32.032 18.374 12.931 28.312C123.798 620.21 15.14 589.777.063 673.827c-.057 6.009-.82 15.809 4.993 18.491 35.224.817 246.875-.04 284.014.273 35.682-1.805 39.141-44.981 37.872-71.297.282-9.336 9.568-18.025 18.783-14.216 18.551 8.942 11.198 52.52 3.189 76.746-1.802 6.984.065 8.735 7.998 8.729 21.076.032 47.632.013 69.044.017 13.062-1.121 29.477 5.056 31.691-12.164 11.965-96.446 110.148-86.245 189.421-93.183 9.438-8.6 1.665-27.852 15.605-33.276 17.583-5.386 20.319 17.862 19.872 30.365-.299 11.547 1.966 26.488-7.786 32.677-7.819 4.579-18.542 3.927-27.93 3.774-75.589-3.242-162.362-.292-158.543 70.838 43.381 2.626 230.065.457 308.414.713 3.222-1.307 2.274-4.108 2.695-9.453-1.677-68.415 11.987-150.469-35.39-216.742ZM113.614 260.562c-5.285.648-14.193 3.89-17.457 2.706 15.398-11.838 5.961-31.649 31.756-14.273 17.101 8.678-6.952 9.225-14.299 11.567Z"></path></svg>
