<svg xmlns="http://www.w3.org/2000/svg" viewBox="0 0 60 60"><path fill="#dedede" d="M30 58.5C14.285 58.5 1.5 45.715 1.5 30S14.285 1.5 30 1.5 58.5 14.285 58.5 30 45.715 58.5 30 58.5Z"/><path fill="#161616" d="M30 3c14.888 0 27 12.112 27 27S44.888 57 30 57 3 44.888 3 30 15.112 3 30 3m0-3C13.431 0 0 13.432 0 30s13.431 30 30 30 30-13.431 30-30S46.569 0 30 0Z"/><path fill="#161616" d="M48.052 32.869c-.643-1.183-2.564-1.602-3.342-1.611-1-.012-1.8.052-2.37.185a40.449 40.449 0 0 0 .011-1.616H13.128c-.002.167-.004.334-.004.502 0 8.195 2.273 12.217 5.793 14.982.815.64 1.697 2.187 2.634 2.593v1.009h12.377v-1.009c.936-.406 1.818-1.952 2.633-2.593a14.574 14.574 0 0 0 2.009-1.896l.818-.059c.192-.014 4.728-.365 7.57-2.75.781-.655 1.395-1.947 1.644-3.455.154-.937.288-2.739-.55-4.282Zm-2.447 6.17c-1.648 1.383-4.154 1.942-5.478 2.151 1.047-1.885 1.766-4.25 2.068-7.351l.535-.371c.135-.042.654-.169 1.954-.153.486.006 1.369.312 1.53.53.917 1.698.145 4.559-.609 5.193ZM35.097 21.142c.228-1.995-.812-3.008-1.307-4.735-.715-2.493.325-3.609 1.026-5.832.087-.276.209-1.794.717-1.458.163.108.724 2.358.758 2.702.101 1.035-.342 1.947-.278 2.81.098 1.314 1.269 3.002 1.646 4.326.894 3.133-1.221 4.763-2.704 7.139-.224.36-.976 2.053-1.287 2.001-.131-.022-.335-.354-.367-.494-.561-2.518 1.523-4.078 1.795-6.46Zm-13.645-.098c.043 2.332-1.607 4.144-.836 6.444.474 1.416 1.164-.82 1.348-1.157 4.537-6.268 1.584-5.882.785-11.85.132-1.316.725-2.343.638-3.834-.024-.42-.106-1.707-.688-1.521-.231.074-.39.825-.515 1.086-.943 1.982-2.178 3.211-2.026 5.636.112 1.798 1.261 3.404 1.294 5.196Zm8.196-5.221c-.845-2.607 3.153-3.407.028-7.878-.078-.111-.134-.356-.321-.317-.377.079-2.842 1.985-2.977 2.381-.454 1.333.761 2.162.346 3.617-.823 2.88 1.263 4.394 1.498 6.997.238 2.631-2.008 4.682-1.283 6.994.504 1.61 1.045-.344 1.306-.823.775-1.424 2.121-2.562 2.751-4.183 1.099-2.83-.553-4.34-1.347-6.789Zm-1.659-6.269a.411.411 0 0 1 .419.403v.01c-.003.225-.19.406-.419.403s-.412-.188-.409-.413a.412.412 0 0 1 .409-.403Zm.359 2.696c-.44-.052-.816.176-.763-.258a.8.8 0 0 1 .892-.69c.44.052.753.446.7.879-.053.433-.389.121-.829.069Zm.824-1.982a.412.412 0 0 1 .409-.403.41.41 0 0 1 .419.403v.01a.411.411 0 0 1-.419.403.411.411 0 0 1-.409-.413Z"/></svg>