<svg xmlns="http://www.w3.org/2000/svg" viewBox="0 0 1080 1080"><style>path{fill:oklch(90% 0 0)}[data-theme="dark"] path{fill:oklch(20% 0 0)}</style><path d="M981.747 660.342c-16.569-30.943-66.117-41.893-86.176-42.138-25.795-.31-46.424 1.346-61.114 4.844.25-9.486.377-19.198.377-29.147 0-4.392-.038-8.77-.101-13.138H81.207a896.5 896.5 0 0 0-.101 13.138c0 214.372 58.621 319.556 149.381 391.892 21.019 16.752 43.768 57.202 67.908 67.818v26.388h319.152v-26.388c24.138-10.615 46.886-51.064 67.904-67.815 18.71-14.911 36.05-31.224 51.796-49.596l21.102-1.539c4.943-.361 121.924-9.555 195.201-71.928 20.127-17.132 35.971-50.917 42.383-90.375 3.982-24.506 7.435-71.644-14.184-112.016Zm-63.093 161.399c-42.485 36.164-107.113 50.808-141.248 56.277 26.997-49.319 45.548-111.173 53.322-192.275l13.801-9.706c3.485-1.096 16.875-4.413 50.387-4.003 12.536.152 35.292 8.166 39.456 13.872 23.645 44.419 3.75 119.264-15.717 135.835ZM499.635.115c4.837-1.03 6.711 5.128 8.286 8.295 38.691 77.797-22.531 137.854-.732 206.059 20.469 64.047 63.079 103.56 34.729 177.584-16.23 42.377-50.938 72.151-70.925 109.405-6.726 12.537-20.66 63.624-33.665 21.519-18.676-60.464 39.23-114.11 33.092-182.937-6.07-68.073-59.845-107.671-38.634-183.019 10.718-38.075 41.425-72.92 53.128-107.786 3.474-10.351 5.007-47.052 14.722-49.121ZM328.014 39.272c15.012-4.865 17.109 28.812 17.738 39.797 2.232 39.013-13.039 65.863-16.453 100.289 20.606 156.095 96.75 145.994-20.237 309.956-4.744 8.824-22.526 67.311-34.757 30.263-19.867-60.175 22.669-107.572 21.561-168.565-.851-46.862-30.478-88.884-33.376-135.91-3.909-63.437 27.929-95.573 52.25-147.419 3.207-6.837 7.31-26.478 13.274-28.411Zm330.923-.227c4.211 2.821 18.665 61.682 19.534 70.677 2.616 27.065-8.823 50.919-7.158 73.511 2.532 34.36 32.717 78.521 42.456 113.15 23.048 81.951-31.472 124.582-69.715 186.743-5.787 9.406-25.16 53.71-33.19 52.33-3.379-.581-8.65-9.261-9.452-12.914-14.47-65.864 39.264-106.679 46.278-168.966 5.877-52.196-20.939-78.678-33.709-123.851-18.435-65.215 8.388-94.41 26.454-152.548 2.24-7.208 5.378-46.922 18.501-38.131Z"/></svg>
