<svg xmlns="http://www.w3.org/2000/svg" viewBox="0 0 60 60"><path fill="#dedede" d="M30 58.5C14.285 58.5 1.5 45.715 1.5 30S14.285 1.5 30 1.5 58.5 14.285 58.5 30 45.715 58.5 30 58.5Z"/><path fill="#161616" d="M30 3c14.888 0 27 12.112 27 27S44.888 57 30 57 3 44.888 3 30 15.112 3 30 3m0-3C13.431 0 0 13.432 0 30s13.431 30 30 30 30-13.431 30-30S46.569 0 30 0Z"/><path fill="#161616" d="M35.097 21.142c.228-1.995-.812-3.008-1.307-4.735-.715-2.493.325-3.609 1.026-5.832.087-.276.209-1.794.717-1.458.163.108.724 2.358.758 2.702.101 1.035-.342 1.947-.278 2.81.098 1.314 1.269 3.002 1.646 4.326.894 3.133-1.221 4.763-2.704 7.139-.224.36-.976 2.053-1.287 2.001-.131-.022-.335-.354-.367-.494-.561-2.518 1.523-4.078 1.795-6.46ZM26.378 10.01c.135-.396 2.6-2.302 2.977-2.381.188-.039.244.206.321.317 3.124 4.471-.874 5.27-.028 7.878.794 2.449 2.446 3.959 1.347 6.789-.629 1.62-1.975 2.758-2.751 4.183-.261.479-.801 2.432-1.306.823-.724-2.312 1.521-4.362 1.283-6.994-.235-2.602-2.321-4.116-1.498-6.997.416-1.456-.799-2.284-.346-3.617Zm2.784.336c-.002.139.111.252.252.254s.256-.109.258-.248v-.006a.253.253 0 0 0-.258-.248.254.254 0 0 0-.252.248Zm-.976 1.061c-.033.267.199.127.47.159.27.032.477.224.51-.042a.487.487 0 0 0-.431-.541.493.493 0 0 0-.549.425Zm-.149-1.252c-.002.139.111.252.252.254s.256-.109.258-.248v-.006a.253.253 0 0 0-.258-.248.254.254 0 0 0-.252.248Zm-6.585 10.889c.043 2.332-1.607 4.144-.836 6.444.474 1.416 1.164-.82 1.348-1.157 4.537-6.268 1.584-5.882.785-11.85.132-1.316.725-2.343.638-3.834-.024-.42-.106-1.707-.688-1.521-.231.074-.39.825-.515 1.086-.943 1.982-2.178 3.211-2.026 5.636.112 1.798 1.261 3.404 1.294 5.196Zm27.15 16.107c-.249 1.508-.863 2.8-1.644 3.455-2.842 2.385-7.378 2.736-7.57 2.75l-.818.059a14.574 14.574 0 0 1-2.009 1.896c-.815.64-1.697 2.187-2.633 2.593v1.009H21.551v-1.009c-.936-.406-1.818-1.952-2.634-2.593-3.52-2.765-5.793-6.787-5.793-14.982 0-.168.001-.335.004-.502h29.223a41.838 41.838 0 0 1-.011 1.616c.57-.134 1.37-.197 2.37-.185.778.009 2.699.428 3.342 1.611.838 1.543.705 3.345.55 4.282Zm-2.387-3.305c-.161-.218-1.044-.525-1.53-.53-1.3-.016-1.819.111-1.954.153l-.535.371c-.301 3.101-1.021 5.465-2.068 7.351 1.324-.209 3.83-.769 5.478-2.151.755-.634 1.527-3.495.61-5.193Z"/></svg>