<svg xmlns="http://www.w3.org/2000/svg" viewBox="0 0 1080 1080"><style>path{fill:oklch(90% 0 0)}[data-theme="dark"] path{fill:oklch(20% 0 0)}</style><path d="M647.69 353.576c5.877-52.196-20.939-78.678-33.709-123.851-18.435-65.215 8.388-94.41 26.454-152.548 2.24-7.208 5.378-46.922 18.501-38.131h.001c4.211 2.82 18.665 61.681 19.534 70.676 2.616 27.065-8.823 50.919-7.158 73.511 2.532 34.36 32.717 78.521 42.456 113.15 23.048 81.951-31.472 124.582-69.715 186.743-5.787 9.406-25.16 53.71-33.19 52.33-3.379-.581-8.65-9.261-9.452-12.914-14.47-65.864 39.264-106.679 46.278-168.966ZM422.876 62.4c3.474-10.351 67.045-60.216 76.76-62.285h-.001c4.837-1.03 6.279 5.382 8.286 8.295 80.559 116.951-22.531 137.854-.732 206.059 20.469 64.047 63.079 103.56 34.729 177.584-16.23 42.377-50.938 72.151-70.925 109.405-6.726 12.537-20.66 63.624-33.665 21.519-18.676-60.464 39.23-114.11 33.092-182.937-6.07-68.073-59.845-107.671-38.634-183.019 10.718-38.075-20.613-59.756-8.91-94.621Zm71.785 8.797a6.569 6.569 0 1 0 13.137-.001 6.569 6.569 0 0 0-13.137.001Zm-25.172 27.744c-.84 6.975 5.132 3.31 12.107 4.15 6.975.84 12.31 5.867 13.15-1.107.84-6.975-4.133-13.31-11.107-14.15-6.975-.84-13.31 4.133-14.15 11.107Zm-3.828-32.744a6.569 6.569 0 1 0 13.137-.001 6.569 6.569 0 0 0-13.137.001ZM295.866 351.012c1.108 60.993-41.428 108.39-21.561 168.565 12.231 37.048 30.013-21.439 34.757-30.263 116.987-163.962 40.843-153.861 20.237-309.956 3.414-34.426 18.685-61.276 16.453-100.289-.629-10.985-2.726-44.662-17.738-39.797-5.964 1.933-10.067 21.574-13.274 28.411-24.321 51.846-56.159 83.982-52.25 147.419 2.898 47.026 32.525 89.048 33.376 135.91Zm700.067 421.346c-6.412 39.458-22.256 73.243-42.383 90.375-73.277 62.373-190.258 71.567-195.201 71.928l-21.102 1.539c-15.746 18.372-33.086 34.685-51.796 49.596-21.018 16.751-43.766 57.2-67.904 67.815v26.388H298.395v-26.388c-24.14-10.616-46.889-51.066-67.908-67.818-90.76-72.336-149.381-177.52-149.381-391.892 0-4.392.037-8.77.101-13.138h753.526c.063 4.368.101 8.746.101 13.138 0 9.949-.127 19.661-.377 29.147 14.69-3.498 35.319-5.154 61.114-4.844 20.059.245 69.607 11.195 86.176 42.138h.002c21.619 40.372 18.166 87.51 14.184 112.016Zm-61.561-86.452c-4.164-5.706-26.92-13.72-39.456-13.872-33.512-.41-46.902 2.907-50.387 4.003l-13.801 9.706c-7.774 81.102-26.325 142.956-53.322 192.275 34.135-5.469 98.763-20.113 141.248-56.277h.001c19.467-16.571 39.362-91.416 15.717-135.835Z"/></svg>
