<svg xmlns="http://www.w3.org/2000/svg" viewBox="0 0 800 800"><path fill="var(--sli-color-accent)" d="M764.001 389.813c-20.527-24.174-43.811-35.617-68.106-38.885l.023-.075.106.033c-.146-.046-14.538-4.891-16.98-14.934-2.335-9.604 6.103-24.889 23.149-41.936 22.058-22.057 22.743-42.117 19.435-55.061-11.04-43.19-81.765-67.3-97.408-72.141-3.349-13.845-12.87-26.016-24.953-21.751-32.747 11.557-72.664 11.61-72.664 11.61s40.756 49.566 58.713 53.419c13.396 2.874 26.634-2.762 34.096-13.264 7.143 2.433 19.868 7.139 32.907 13.773 23.061 11.732 37.354 24.444 40.247 35.796.745 2.921 3.011 11.811-11.585 26.406-25.847 25.846-36.278 49.586-31.007 70.56a43.796 43.796 0 0 0 3.424 9.159c-21.854 4.059-43.714 12.412-64.399 21.98-39.16-.574-91.459 2.14-130.075-1.042-2.116-2.486 4.432-4.904 8.853-7.508 38.385-18.474-6.404-21.746-36.213-82.705-10.198-16.986 18.941-1.385 22.753-9.759-.637-8.376-8.212-16.02-12.039-24.842-6.13-11.633-12.019-24.125-16.574-36.393-3.268-7.023.121-7.378 5.724-7.875 4.496-1.217 31.408.965 28.974-4.538-17.158-21.084-48.082-57.124-67.67-77.428-6.708-5.503-21.558-10.944-26.086-16.271-4.136-6.091 45.263-8.824 34.613-18.559-77.511-42.167-217.176-109.978-271.09 14.183-10.784 10.105-26.634 17.478-36.42 28.222-6.784 7.994-3.362 19.418-8.75 28.352-3.862 7.229-11.019 12.12-17.319 17.165-9.355 7.564-15.212 13.493-24.439 18.004-38.235 14.688-4.844 51.458 4.888 76.556 3.841 9.011 9.819 10.444 18.797 10.114 10.288.046 27.056-.005 37.306.029 9.517-.164 13.009.655 5.839 5.605-11.188 8.452-28.241 19.098-39.353 28.309-7.937 7.396-2.278 19.631-.916 28.977 4.177 20.618 13.216-4.467 25.106-7.822 37.303-15.605 74.985-10.381 32.194 29.69-29.518 20.385-61.967 75.306-47.088 128.189 1.775 7.986 4.098 12.803 11.953 13.126 20.748.522 59.269.081 80.969.287 19.36-2.704 32.032 18.374 12.931 28.312-62.07 9.022-170.728-21.411-185.805 62.639-.057 6.009-.82 15.809 4.993 18.491 35.224.817 246.875-.04 284.014.273 35.682-1.805 39.141-44.981 37.872-71.297.282-9.336 9.568-18.025 18.783-14.216 18.551 8.942 11.198 52.52 3.189 76.746-1.802 6.984.065 8.735 7.998 8.729 21.076.032 47.632.013 69.044.017 13.062-1.121 29.477 5.056 31.691-12.164 11.965-96.446 110.148-86.245 189.421-93.183 9.438-8.6 1.665-27.852 15.605-33.276 17.583-5.386 20.319 17.862 19.872 30.365-.299 11.547 1.966 26.488-7.786 32.677-7.819 4.579-18.542 3.927-27.93 3.774-75.589-3.242-162.362-.292-158.543 70.838 43.381 2.626 230.065.457 308.414.713 3.222-1.307 2.274-4.108 2.695-9.453-1.677-68.415 11.987-150.469-35.39-216.742l-.003.002ZM113.613 184.254c-5.285.648-14.193 3.89-17.457 2.706 15.398-11.838 5.961-31.649 31.756-14.273 17.101 8.678-6.952 9.225-14.299 11.567ZM79.219 697.671c0 12.167-3.637 21.537-10.911 28.104-7.274 6.57-17.04 9.854-29.294 9.854-10.052 0-18.384-2.292-24.997-6.877-7.584-5.291-11.374-12.74-11.374-22.352 0-6.964 2.997-12.74 8.994-17.325 5.466-4.144 11.814-6.217 19.045-6.217 5.906 0 11.109 1.412 15.606 4.232 5.29 3.352 7.936 7.804 7.936 13.358 0 4.85-1.676 8.597-5.026 11.241-2.999 2.47-6.966 3.703-11.903 3.703-3.087 0-6.041-.704-8.861-2.116-3.616-1.763-5.422-4.054-5.422-6.877 0-2.468.661-4.364 1.984-5.688 1.058-.88 2.909-1.719 5.555-2.513 1.145 6.613 3.393 9.92 6.745 9.92 2.292 0 4.275-.86 5.951-2.579 1.674-1.72 2.513-3.725 2.513-6.018 0-3.879-1.897-6.965-5.687-9.259-3.174-1.938-6.877-2.909-11.11-2.909-5.644 0-10.56 1.918-14.747 5.753-4.188 3.836-6.282 8.576-6.282 14.218 0 7.584 3.651 13.579 10.954 17.986 6.245 3.792 13.24 5.688 20.983 5.688 8.27 0 15.397-2.688 21.382-8.067 6.333-5.555 9.501-12.387 9.501-20.5 0-5.73-2.023-11.021-6.069-15.871-3.341-3.967-8.001-7.625-13.982-10.977-3.43-1.852-8.619-4.673-15.567-8.465-11.171-6.259-16.755-12.739-16.755-19.441 0-5.377 2.953-9.698 8.861-12.961 4.848-2.646 10.006-3.968 15.474-3.968 4.761 0 9.08.794 12.961 2.381 5.202 2.116 7.803 5.335 7.803 9.654 0 3.438-2.645 5.158-7.936 5.158-.529-.176-.882-.705-1.058-1.587-.089-.529-.022-1.323.199-2.381.219-1.058.331-1.763.331-2.116 0-4.937-4.342-7.406-13.021-7.406-3.366 0-6.601.707-9.7 2.116-3.897 1.852-5.846 4.232-5.846 7.142 0 3.616 3.614 7.406 10.845 11.374 3.438 1.676 8.551 4.232 15.341 7.671 17.723 9.258 26.583 20.896 26.583 34.916Zm32.137-28.965h-7.274v49.597c0 3.616 2.159 7.142 6.48 10.58-2.999 4.497-5.468 6.745-7.407 6.745-.882 0-2.116-.926-3.703-2.777-3.881-4.673-5.819-12.079-5.819-22.219v-39.941c-1.823-1.059-3.429-1.852-4.815-2.381-.434.089-1.562.883-3.385 2.381v-4.894c2.949-.087 4.858-.352 5.727-.794 1.649-.793 2.474-2.467 2.474-5.025 0-1.322-.926-3.571-2.778-6.745l12.3-13.622c.176.882.265 4.761.265 11.639v10.977c0 1.501 1.058 2.381 3.174 2.646h4.761v3.835Zm74.724 30.023c0 9.876-3.439 18.473-10.316 25.79-6.877 7.319-15.209 10.978-24.997 10.978s-17.9-3.703-24.335-11.11c-6.084-7.142-9.126-15.692-9.126-25.657 0-9.522 3.525-17.897 10.581-25.129 7.053-7.229 15.296-10.845 24.732-10.845 9.522 0 17.544 3.66 24.071 10.978 6.259 6.966 9.39 15.298 9.39 24.996Zm-7.407 5.819c0-7.936-3.254-15.518-9.762-22.748-6.774-7.493-14.03-11.242-21.769-11.242-4.927 0-9.719 2.314-14.381 6.943-4.662 4.63-6.991 9.413-6.991 14.351 0 7.584 2.99 15.342 8.971 23.276 6.332 8.378 13.193 12.564 20.581 12.564 5.805 0 11.148-2.401 16.03-7.208 4.881-4.805 7.321-10.117 7.321-15.937Zm74.063-9.654c0 6.348-1.587 12.874-4.761 19.573l-4.629 9.787c.529 1.058 1.455 2.248 2.777 3.571 1.938 1.852 3.042 2.955 3.307 3.306l-9.522 3.968c-3.439 1.323-6.702 2.116-9.787 2.381l9.522-18.384c3.085-6.964 4.629-13.709 4.629-20.235s-1.632-12.343-4.894-17.457c-3.703-5.906-8.642-8.861-14.812-8.861-5.379 0-9.744 2.294-13.093 6.877-3.087 4.146-4.629 8.993-4.629 14.549v31.212c0 2.734.308 4.608.926 5.621.616 1.015 2.159 2.359 4.629 4.033-2.999.881-7.142 1.323-12.432 1.323-3.438 0-6.173-.265-8.2-.794 3.703-4.672 5.555-8.375 5.555-11.109v-33.196c0-6.877-.839-11.903-2.513-15.077-.793-.969-1.808-2.468-3.042-4.497.44-1.145 1.233-2.4 2.38-3.769 1.145-1.366 2.203-2.051 3.174-2.051 1.587 0 5.069 3.264 10.448 9.787 6.877-7.142 13.401-10.713 19.574-10.713 8.287 0 14.724 3.042 19.31 9.126 4.054 5.468 6.083 12.478 6.083 21.029Zm66.523 22.218c-1.5 6.084-5.158 10.802-10.977 14.151-5.204 2.998-11.155 4.496-17.855 4.496-2.823 0-5.732-.572-8.729-1.719a339.5 339.5 0 0 0-8.068-3.042c-3.087 2.205-4.629 4.761-4.629 7.671 0 1.587.397 2.645 1.19 3.174s1.498 1.059 2.116 1.587c.264.616.396 2.6.396 5.952-6.261-.178-9.39-2.823-9.39-7.936 0-2.205 1.852-7.01 5.555-14.416-1.147-1.409-3.042-4.055-5.687-7.936-3.087-4.672-4.629-11.063-4.629-19.177 0-9.698 2.997-18.03 8.994-24.996 6.259-7.317 14.195-10.978 23.806-10.978 6.435 0 13.577 2.294 21.425 6.877l-32.667 50.39c3.79 3.792 9.081 5.688 15.871 5.688 4.143 0 7.361-.484 9.654-1.455 1.145-.529 3.703-2.203 7.671-5.025 1.763-1.323 3.747-2.425 5.952-3.307Zm-20.499-39.545c0-2.645-1.455-4.805-4.365-6.48-2.558-1.498-5.158-2.248-7.803-2.248-5.555 0-10.448 3.042-14.681 9.125-3.792 5.556-5.687 11.242-5.687 17.062 0 8.464 2.91 15.52 8.729 21.161 4.408-4.497 8.948-10.581 13.622-18.252 4.497-7.406 7.89-14.194 10.184-20.367Zm138.734 33.593c0 7.671-2.403 13.801-7.208 18.384-4.807 4.586-11.089 6.878-18.847 6.878-3.352 0-8.223-.903-14.614-2.712-6.394-1.806-11.265-2.711-14.614-2.711-5.115 0-9.039 1.411-11.771 4.232-.618 0-3.131-2.292-7.539-6.878 6.789-7.053 10.184-12.783 10.184-17.193v-65.334c0-1.763-.839-3.879-2.513-6.349a863.26 863.26 0 0 1-4.364-5.687l21.69-.265c-3.263 3.881-4.894 7.584-4.894 11.109v65.599c0 1.412-.486 3.703-1.455 6.878-1.058 3.438-1.983 5.555-2.777 6.348 4.232-.615 7.847-.926 10.845-.926 3.085 0 7.559.883 13.424 2.646 5.862 1.765 10.293 2.646 13.291 2.646 3.879 0 7.539-1.786 10.978-5.356 3.438-3.571 5.158-7.341 5.158-11.309 0-4.143-1.19-7.89-3.571-11.241-2.733-3.614-6.084-5.423-10.051-5.423-6.791 0-10.185 2.338-10.185 7.01 0 2.998 2.381 4.497 7.143 4.497-.265 2.469-.905 4.122-1.918 4.959-1.015.839-2.757 1.257-5.225 1.257-2.909 0-5.246-1.455-7.009-4.364-1.5-2.468-2.249-5.245-2.249-8.332 0-3.879 1.895-7.01 5.687-9.391 3.261-2.203 6.921-3.307 10.977-3.307 6.26 0 11.461 2.559 15.606 7.671 3.879 4.762 5.819 10.316 5.819 16.664Zm23.013 24.6h-16.003c0-.089.572-1.587 1.719-4.496.794-2.027 1.19-3.394 1.19-4.101V694.1c0-8.904-1.544-15.032-4.629-18.384 3.703-3.968 8.067-6.877 13.094-8.729v49.464c0 7.495 1.541 13.932 4.629 19.309Zm-4.629-86.363c0 3.352-1.544 5.025-4.629 5.025-3.175 0-4.762-1.674-4.762-5.025 0-1.323.463-2.447 1.389-3.373s2.05-1.389 3.373-1.389c3.085 0 4.629 1.587 4.629 4.762Zm78.427 49.332c0 9.876-3.438 18.473-10.316 25.79-6.877 7.319-15.209 10.978-24.996 10.978s-17.9-3.703-24.335-11.11c-6.084-7.142-9.126-15.692-9.126-25.657 0-9.522 3.525-17.897 10.581-25.129 7.053-7.229 15.296-10.845 24.731-10.845 9.522 0 17.545 3.66 24.07 10.978 6.26 6.966 9.391 15.298 9.391 24.996Zm-7.407 5.819c0-7.936-3.255-15.518-9.763-22.748-6.773-7.493-14.029-11.242-21.769-11.242-4.926 0-9.719 2.314-14.381 6.943-4.661 4.63-6.99 9.413-6.99 14.351 0 7.584 2.99 15.342 8.971 23.276 6.331 8.378 13.192 12.564 20.58 12.564 5.805 0 11.148-2.401 16.029-7.208 4.882-4.805 7.322-10.117 7.322-15.937Zm74.064-9.654c0 6.348-1.588 12.874-4.762 19.573l-4.629 9.787c.529 1.058 1.455 2.248 2.777 3.571 1.938 1.852 3.042 2.955 3.307 3.306l-9.522 3.968c-3.438 1.323-6.702 2.116-9.787 2.381l9.522-18.384c3.085-6.964 4.629-13.709 4.629-20.235s-1.633-12.343-4.894-17.457c-3.703-5.906-8.642-8.861-14.812-8.861-5.379 0-9.743 2.294-13.094 6.877-3.087 4.146-4.629 8.993-4.629 14.549v31.212c0 2.734.309 4.608.926 5.621.616 1.015 2.16 2.359 4.629 4.033-2.998.881-7.142 1.323-12.432 1.323-3.438 0-6.173-.265-8.2-.794 3.703-4.672 5.555-8.375 5.555-11.109v-33.196c0-6.877-.839-11.903-2.513-15.077-.793-.969-1.808-2.468-3.042-4.497.44-1.145 1.234-2.4 2.381-3.769 1.145-1.366 2.203-2.051 3.174-2.051 1.588 0 5.069 3.264 10.448 9.787 6.878-7.142 13.401-10.713 19.574-10.713 8.287 0 14.724 3.042 19.31 9.126 4.055 5.468 6.084 12.478 6.084 21.029Zm62.29-61.103-2.91 4.238c-1.146 1.678-1.72 3.224-1.72 4.635v82.501c.881.885 1.72 2.562 2.514 5.034.969 2.914 1.63 4.722 1.983 5.429h-18.516c1.322-1.857 2.996-4.823 5.025-8.896v-84.573c0-.974-1.676-3.761-5.025-8.365 3.968-.707 7.097-.972 9.39-.796l9.259.794Zm66.259 61.103c0 6.348-1.588 12.874-4.762 19.573l-4.629 9.787c.529 1.058 1.455 2.248 2.777 3.571 1.938 1.852 3.042 2.955 3.307 3.306l-9.522 3.968c-3.438 1.323-6.702 2.116-9.787 2.381l9.522-18.384c3.085-6.964 4.629-13.709 4.629-20.235s-1.633-12.343-4.894-17.457c-3.703-5.906-8.642-8.861-14.812-8.861-5.379 0-9.743 2.294-13.094 6.877-3.087 4.146-4.629 8.993-4.629 14.549v31.212c0 2.734.309 4.608.926 5.621.616 1.015 2.16 2.359 4.629 4.033-2.998.881-7.142 1.323-12.432 1.323-3.438 0-6.173-.265-8.2-.794 3.703-4.672 5.555-8.375 5.555-11.109v-33.196c0-6.877-.839-11.903-2.513-15.077-.793-.969-1.808-2.468-3.042-4.497.44-1.145 1.234-2.4 2.381-3.769 1.145-1.366 2.203-2.051 3.174-2.051 1.588 0 5.069 3.264 10.448 9.787 6.878-7.142 13.401-10.713 19.574-10.713 8.287 0 14.724 3.042 19.31 9.126 4.055 5.468 6.084 12.478 6.084 21.029Zm67.316 0c0 6.348-1.588 12.874-4.762 19.573l-4.629 9.787c.529 1.058 1.455 2.248 2.777 3.571 1.938 1.852 3.042 2.955 3.307 3.306l-9.522 3.968c-3.438 1.323-6.702 2.116-9.787 2.381l9.522-18.384c3.085-6.964 4.629-13.709 4.629-20.235s-1.633-12.343-4.894-17.457c-3.703-5.906-8.642-8.861-14.812-8.861-5.379 0-9.743 2.294-13.094 6.877-3.087 4.146-4.629 8.993-4.629 14.549v31.212c0 2.734.309 4.608.926 5.621.616 1.015 2.16 2.359 4.629 4.033-2.998.881-7.142 1.323-12.432 1.323-3.438 0-6.173-.265-8.2-.794 3.703-4.672 5.555-8.375 5.555-11.109v-33.196c0-6.877-.839-11.903-2.513-15.077-.793-.969-1.808-2.468-3.042-4.497.44-1.145 1.234-2.4 2.381-3.769 1.145-1.366 2.203-2.051 3.174-2.051 1.588 0 5.069 3.264 10.448 9.787 6.878-7.142 13.401-10.713 19.574-10.713 8.287 0 14.724 3.042 19.31 9.126 4.055 5.468 6.084 12.478 6.084 21.029Z"/></svg>
